<svg version="1.1" xmlns="http://www.w3.org/2000/svg" xmlns:xlink="http://www.w3.org/1999/xlink" width="128px" height="128px" viewBox="0,0,256,256"><g fill="#6b7280" fill-rule="nonzero" stroke="none" stroke-width="1" stroke-linecap="butt" stroke-linejoin="miter" stroke-miterlimit="10" stroke-dasharray="" stroke-dashoffset="0" font-family="none" font-weight="none" font-size="none" text-anchor="none" style="mix-blend-mode: normal"><g transform="scale(2,2)"><path d="M64,7c-1.7,0 -3,1.3 -3,3v18c0,1.7 1.3,3 3,3c1.7,0 3,-1.3 3,-3v-18c0,-1.7 -1.3,-3 -3,-3zM90.24219,12.78516c-1.16719,0.01406 -2.29219,0.68945 -2.74219,1.81445l-6.09961,14.80078c-0.6,1.5 0.09961,3.30039 1.59961,3.90039c0.3,0.1 0.69961,0.19922 1.09961,0.19922c1.2,0 2.30078,-0.70039 2.80078,-1.90039l6.09961,-14.69922c0.6,-1.5 -0.09961,-3.30039 -1.59961,-3.90039c-0.375,-0.15 -0.76914,-0.21953 -1.1582,-0.21484zM37.85742,12.84375c-0.38906,0 -0.7832,0.08086 -1.1582,0.25586c-1.5,0.6 -2.29961,2.40039 -1.59961,3.90039l6.09961,14.80078c0.5,1.1 1.60078,1.79883 2.80078,1.79883c0.4,0 0.79961,-0.09922 1.09961,-0.19922c1.5,-0.6 2.29961,-2.40039 1.59961,-3.90039l-6.09961,-14.80078c-0.45,-1.125 -1.575,-1.85547 -2.74219,-1.85547zM17.86328,31.03711c-0.7625,0.0375 -1.5125,0.36289 -2.0625,0.96289c-1.1,1.2 -1.00078,3.09922 0.19922,4.19922l6.09961,5.5c0.5,0.6 1.2,0.80078 2,0.80078c0.8,0 1.60117,-0.3 2.20117,-1c1.1,-1.2 0.99883,-3.09922 -0.20117,-4.19922l-6.09961,-5.5c-0.6,-0.55 -1.37422,-0.80117 -2.13672,-0.76367zM109.0625,31.03711c-0.7625,0.0125 -1.5125,0.31328 -2.0625,0.86328l-5.30078,5.40039c-1.2,1.2 -1.1,3.09922 0,4.19922c0.6,0.6 1.30156,0.90039 2.10156,0.90039c0.7,0 1.49961,-0.30039 2.09961,-0.90039l5.29883,-5.40039c1.2,-1.2 1.1,-3.09922 0,-4.19922c-0.6,-0.6 -1.37422,-0.87578 -2.13672,-0.86328zM64,40c-24.1,0 -48.69961,16.59922 -62.59961,42.19922c-0.8,1.5 -0.30078,3.30156 1.19922,4.10156c1.4,0.7 3.2,0.19883 4,-1.20117c12.8,-23.4 35.80039,-39.09961 57.40039,-39.09961c21.6,0 44.60039,15.69961 57.40039,39.09961c0.5,1 1.49961,1.5 2.59961,1.5c0.5,0 1.00039,-0.10039 1.40039,-0.40039c1.5,-0.8 1.99922,-2.59961 1.19922,-4.09961c-13.9,-25.5 -38.49961,-42.09961 -62.59961,-42.09961zM64,64c-8.28427,0 -15,6.71573 -15,15c0,8.28427 6.71573,15 15,15c8.28427,0 15,-6.71573 15,-15c0,-8.28427 -6.71573,-15 -15,-15zM19.24609,80.63281c-0.57832,-0.0498 -1.18359,0.06719 -1.74609,0.36719c-1.5,0.8 -1.99922,2.59961 -1.19922,4.09961c11.5,21.1 28.89961,33.30078 47.59961,33.30078c18.7,0 36.09961,-12.10078 47.59961,-33.30078c0.8,-1.5 0.30078,-3.29961 -1.19922,-4.09961c-1.5,-0.8 -3.30156,-0.30078 -4.10156,1.19922c-10.5,19.2 -25.89844,30.10156 -42.39844,30.10156c-16.5,0 -31.70117,-11.00156 -42.20117,-30.10156c-0.5,-0.9375 -1.38965,-1.4834 -2.35352,-1.56641z"></path></g></g></svg>