<svg version="1.1" xmlns="http://www.w3.org/2000/svg" xmlns:xlink="http://www.w3.org/1999/xlink" width="30px" height="30px" viewBox="0,0,256,256"><g fill="#404040" fill-rule="nonzero" stroke="none" stroke-width="1" stroke-linecap="butt" stroke-linejoin="miter" stroke-miterlimit="10" stroke-dasharray="" stroke-dashoffset="0" font-family="none" font-weight="none" font-size="none" text-anchor="none" style="mix-blend-mode: normal"><g transform="scale(8.53333,8.53333)"><path d="M4.6582,4c-1.04,2.431 -0.62,4.46027 -0.25,5.57227c-1.493,1.6 -2.40625,3.80423 -2.40625,6.74023c0,7.267 4.59,9.6875 13,9.6875c8.41,0 13,-2.4205 13,-9.6875c0.001,-2.836 -0.9653,-5.04773 -2.5293,-6.67773c0.224,-0.368 0.53125,-1.08627 0.53125,-2.44727c0,-2.047 -0.6875,-3.1875 -0.6875,-3.1875c-1.069,0 -3.5812,0.43105 -5.6582,2.49805c-1.475,-0.367 -3.0473,-0.49805 -4.6543,-0.49805c-1.574,0 -3.1155,0.0863 -4.5625,0.4043c-0.093,-0.086 -2.6802,-2.4043 -5.7832,-2.4043zM10.00586,13.5c1.303,0.014 3.45305,0.499 4.99805,0.5c1.545,-0.001 3.69309,-0.486 4.99609,-0.5c2.522,0 4,2.00266 4,4.47266c0,4.052 -2.34314,6.02634 -8.99414,6.02734h-0.00195h-0.00391c-6.651,-0.001 -8.99414,-1.97534 -8.99414,-6.02734c0,-2.47 1.478,-4.47266 4,-4.47266zM10.5,17c-0.82843,0 -1.5,0.89543 -1.5,2c0,1.10457 0.67157,2 1.5,2c0.82843,0 1.5,-0.89543 1.5,-2c0,-1.10457 -0.67157,-2 -1.5,-2zM19.5,17c-0.82843,0 -1.5,0.89543 -1.5,2c0,1.10457 0.67157,2 1.5,2c0.82843,0 1.5,-0.89543 1.5,-2c0,-1.10457 -0.67157,-2 -1.5,-2z"></path></g></g></svg>