<svg version="1.1" xmlns="http://www.w3.org/2000/svg" xmlns:xlink="http://www.w3.org/1999/xlink" width="24px" height="24px" viewBox="0,0,256,256"><g fill="#a8a8a8" fill-rule="nonzero" stroke="none" stroke-width="1" stroke-linecap="butt" stroke-linejoin="miter" stroke-miterlimit="10" stroke-dasharray="" stroke-dashoffset="0" font-family="none" font-weight="none" font-size="none" text-anchor="none" style="mix-blend-mode: normal"><g transform="translate(4.45085,260.44561) rotate(-90) scale(10.66667,10.66667)"><path d="M18,3c-6.06341,0 -11,4.93659 -11,11v2h-2.54687c-0.552,0 -0.83889,0.6575 -0.46289,1.0625l3.42383,3.69336c0.325,0.325 0.85273,0.325 1.17773,0l3.42383,-3.69336c0.377,-0.405 0.09011,-1.0625 -0.46289,-1.0625h-2.55273v-2c0,-4.98259 4.01741,-9 9,-9h2c0.36064,0.0051 0.69608,-0.18438 0.87789,-0.49587c0.18181,-0.3115 0.18181,-0.69676 0,-1.00825c-0.18181,-0.3115 -0.51725,-0.50097 -0.87789,-0.49587z"></path></g></g></svg>