<svg version="1.1" xmlns="http://www.w3.org/2000/svg" xmlns:xlink="http://www.w3.org/1999/xlink" width="24px" height="24px" viewBox="0,0,256,256"><g fill="#404040" fill-rule="nonzero" stroke="none" stroke-width="1" stroke-linecap="butt" stroke-linejoin="miter" stroke-miterlimit="10" stroke-dasharray="" stroke-dashoffset="0" font-family="none" font-weight="none" font-size="none" text-anchor="none" style="mix-blend-mode: normal"><g transform="scale(10.66667,10.66667)"><path d="M23.692,13.038l-5.457,-2.273l-2.273,-5.457c-0.156,-0.373 -0.768,-0.373 -0.924,0l-2.273,5.457l-5.457,2.273c-0.187,0.078 -0.308,0.26 -0.308,0.462c0,0.202 0.121,0.384 0.308,0.462l5.457,2.273l2.273,5.457c0.078,0.187 0.26,0.308 0.462,0.308c0.202,0 0.384,-0.121 0.462,-0.308l2.273,-5.457l5.457,-2.273c0.187,-0.078 0.308,-0.26 0.308,-0.462c0,-0.202 -0.121,-0.384 -0.308,-0.462zM10.658,6.025l-3.512,-1.171l-1.171,-3.512c-0.137,-0.408 -0.813,-0.408 -0.949,0l-1.172,3.512l-3.512,1.171c-0.204,0.069 -0.342,0.26 -0.342,0.475c0,0.215 0.138,0.406 0.342,0.475l3.513,1.171l1.171,3.513c0.068,0.203 0.259,0.341 0.474,0.341c0.215,0 0.406,-0.138 0.475,-0.342l1.171,-3.513l3.513,-1.171c0.203,-0.068 0.341,-0.259 0.341,-0.474c0,-0.215 -0.138,-0.406 -0.342,-0.475zM8.658,19.025l-2.013,-0.671l-0.671,-2.013c-0.137,-0.408 -0.813,-0.408 -0.949,0l-0.671,2.013l-2.013,0.671c-0.203,0.069 -0.341,0.26 -0.341,0.475c0,0.215 0.138,0.406 0.342,0.475l2.013,0.671l0.671,2.013c0.068,0.203 0.259,0.341 0.474,0.341c0.215,0 0.406,-0.138 0.475,-0.342l0.671,-2.013l2.013,-0.671c0.203,-0.068 0.341,-0.259 0.341,-0.474c0,-0.215 -0.138,-0.406 -0.342,-0.475z"></path></g></g></svg>